<svg width="95" height="95" viewBox="0 0 24 34" fill="none" xmlns="http://www.w3.org/2000/svg">
<path d="M24 1V28C24 28.2652 23.8946 28.5196 23.7071 28.7071C23.5196 28.8946 23.2652 29 23 29H5C4.20435 29 3.44129 29.3161 2.87868 29.8787C2.31607 30.4413 2 31.2044 2 32H19C19.2652 32 19.5196 32.1054 19.7071 32.2929C19.8946 32.4804 20 32.7348 20 33C20 33.2652 19.8946 33.5196 19.7071 33.7071C19.5196 33.8946 19.2652 34 19 34H1C0.734784 34 0.48043 33.8946 0.292893 33.7071C0.105357 33.5196 0 33.2652 0 33V5C0 3.67392 0.526784 2.40215 1.46447 1.46447C2.40215 0.526784 3.67392 0 5 0H23C23.2652 0 23.5196 0.105357 23.7071 0.292893C23.8946 0.48043 24 0.734784 24 1Z" fill="#037FFF"/>
</svg>
