<svg width="1554" height="1229" viewBox="0 0 1554 1229" fill="none" xmlns="http://www.w3.org/2000/svg">
<rect x="0.5" y="0.5" width="1553" height="1228" fill="#00255B"/>
<ellipse cx="870.5" cy="682" rx="429.5" ry="426" fill="#66FCF1"/>
<circle cx="411" cy="426" r="50" fill="#66FCF1"/>
<circle cx="551" cy="389" r="50" fill="#66FCF1"/>
<circle cx="667" cy="306" r="50" fill="#66FCF1"/>
<circle cx="437" cy="575" r="50" fill="#66FCF1"/>
<circle cx="411" cy="732" r="50" fill="#66FCF1"/>
<circle cx="271" cy="526" r="31" fill="#66FCF1"/>
<circle cx="271" cy="683" r="31" fill="#66FCF1"/>
<circle cx="356" cy="291" r="31" fill="#66FCF1"/>
<circle cx="302" cy="408" r="31" fill="#66FCF1"/>
<circle cx="458.5" cy="242.5" r="17.5" fill="#66FCF1"/>
<circle cx="378.5" cy="207.5" r="17.5" fill="#66FCF1"/>
<circle cx="301.5" cy="207.5" r="17.5" fill="#66FCF1"/>
<circle cx="284.5" cy="291.5" r="17.5" fill="#66FCF1"/>
<circle cx="222.5" cy="356.5" r="17.5" fill="#66FCF1"/>
<circle cx="177.5" cy="574.5" r="17.5" fill="#66FCF1"/>
<circle cx="187.5" cy="472.5" r="17.5" fill="#66FCF1"/>
<circle cx="560" cy="229" r="31" fill="#66FCF1"/>
<circle cx="470" cy="322" r="31" fill="#66FCF1"/>
<path d="M1111.84 896.666C1111.84 903.411 1110.64 909.674 1108.23 915.455C1105.82 921.236 1102.45 926.295 1098.11 930.631C1094.01 934.726 1089.08 937.978 1083.29 940.387C1077.51 942.796 1071.25 944 1064.51 944H725.58C716.908 944 707.514 943.036 697.396 941.109C687.52 938.941 677.644 935.689 667.768 931.354C658.132 927.018 648.858 921.477 639.945 914.732C631.033 907.747 623.083 899.436 616.098 889.801C609.353 879.924 603.933 868.603 599.838 855.836C595.743 842.828 593.695 828.255 593.695 812.115V557.74C593.695 549.068 594.659 539.794 596.586 529.918C598.754 519.801 602.006 509.924 606.342 500.289C610.678 490.413 616.339 481.018 623.324 472.105C630.31 463.193 638.62 455.364 648.256 448.619C658.132 441.633 669.454 436.093 682.221 431.998C694.988 427.903 709.441 425.855 725.58 425.855H1107.5V519.801H725.58C713.295 519.801 703.9 523.053 697.396 529.557C690.893 536.061 687.641 545.696 687.641 558.463V812.115C687.641 824.16 690.893 833.554 697.396 840.299C704.141 846.803 713.536 850.055 725.58 850.055H1017.89V732.262H767.855V637.594H1064.51C1071.25 637.594 1077.51 638.919 1083.29 641.568C1089.08 643.977 1094.01 647.35 1098.11 651.686C1102.45 656.021 1105.82 661.08 1108.23 666.861C1110.64 672.402 1111.84 678.424 1111.84 684.928V896.666Z" fill="#00255B"/>
<rect x="0.5" y="0.5" width="1553" height="1228" stroke="#00409F"/>
<rect x="0.5" y="0.5" width="1553" height="1228" stroke="black" stroke-opacity="0.2"/>
</svg>
