<svg width="55" height="55" viewBox="0 0 34 34" fill="none" xmlns="http://www.w3.org/2000/svg">
<path d="M17 27C22.5228 27 27 22.5228 27 17C27 11.4772 22.5228 7 17 7C11.4772 7 7 11.4772 7 17C7 22.5228 11.4772 27 17 27Z" fill="#037FFF"/>
<path d="M4 18H1C0.734784 18 0.48043 17.8946 0.292893 17.7071C0.105357 17.5196 0 17.2652 0 17C0 16.7348 0.105357 16.4804 0.292893 16.2929C0.48043 16.1054 0.734784 16 1 16H4C4.26522 16 4.51957 16.1054 4.70711 16.2929C4.89464 16.4804 5 16.7348 5 17C5 17.2652 4.89464 17.5196 4.70711 17.7071C4.51957 17.8946 4.26522 18 4 18Z" fill="#037FFF"/>
<path d="M33 18H30C29.7348 18 29.4804 17.8946 29.2929 17.7071C29.1054 17.5196 29 17.2652 29 17C29 16.7348 29.1054 16.4804 29.2929 16.2929C29.4804 16.1054 29.7348 16 30 16H33C33.2652 16 33.5196 16.1054 33.7071 16.2929C33.8946 16.4804 34 16.7348 34 17C34 17.2652 33.8946 17.5196 33.7071 17.7071C33.5196 17.8946 33.2652 18 33 18Z" fill="#037FFF"/>
<path d="M17 5C16.7348 5 16.4804 4.89464 16.2929 4.70711C16.1054 4.51957 16 4.26522 16 4V1C16 0.734784 16.1054 0.48043 16.2929 0.292893C16.4804 0.105357 16.7348 0 17 0C17.2652 0 17.5196 0.105357 17.7071 0.292893C17.8946 0.48043 18 0.734784 18 1V4C18 4.26522 17.8946 4.51957 17.7071 4.70711C17.5196 4.89464 17.2652 5 17 5Z" fill="#037FFF"/>
<path d="M17 34C16.7348 34 16.4804 33.8946 16.2929 33.7071C16.1054 33.5196 16 33.2652 16 33V30C16 29.7348 16.1054 29.4804 16.2929 29.2929C16.4804 29.1054 16.7348 29 17 29C17.2652 29 17.5196 29.1054 17.7071 29.2929C17.8946 29.4804 18 29.7348 18 30V33C18 33.2652 17.8946 33.5196 17.7071 33.7071C17.5196 33.8946 17.2652 34 17 34Z" fill="#037FFF"/>
<path d="M26.1899 8.80991C25.9921 8.80908 25.799 8.74962 25.6351 8.63906C25.4711 8.5285 25.3436 8.37179 25.2686 8.18876C25.1937 8.00573 25.1747 7.80459 25.2141 7.61078C25.2535 7.41696 25.3495 7.23918 25.4899 7.09991L27.6099 4.99991C27.8024 4.86819 28.0349 4.80791 28.2671 4.82949C28.4994 4.85107 28.7168 4.95316 28.8817 5.11809C29.0466 5.28302 29.1487 5.50042 29.1703 5.73267C29.1919 5.96492 29.1316 6.19741 28.9999 6.38991L26.8999 8.50991C26.8073 8.6044 26.6968 8.67957 26.575 8.73106C26.4531 8.78256 26.3222 8.80936 26.1899 8.80991Z" fill="#037FFF"/>
<path d="M5.69002 29.3099C5.4283 29.3009 5.18056 29.1896 5.00002 28.9999C4.81377 28.8126 4.70923 28.5591 4.70923 28.2949C4.70923 28.0308 4.81377 27.7773 5.00002 27.5899L7.12002 25.4699C7.31132 25.3061 7.5574 25.2205 7.80907 25.2302C8.06075 25.24 8.29949 25.3443 8.47758 25.5224C8.65568 25.7005 8.76001 25.9392 8.76973 26.1909C8.77945 26.4426 8.69385 26.6886 8.53002 26.8799L6.39002 28.9999C6.29942 29.0951 6.19097 29.1714 6.07086 29.2246C5.95075 29.2778 5.82134 29.3068 5.69002 29.3099Z" fill="#037FFF"/>
<path d="M28.31 29.31C28.0476 29.3089 27.7962 29.2047 27.61 29.02L25.49 26.9C25.3261 26.7087 25.2405 26.4626 25.2503 26.2109C25.26 25.9592 25.3643 25.7205 25.5424 25.5424C25.7205 25.3643 25.9592 25.26 26.2109 25.2503C26.4626 25.2405 26.7087 25.3261 26.9 25.49L29 27.61C29.1802 27.7964 29.281 28.0456 29.281 28.305C29.281 28.5643 29.1802 28.8135 29 29C28.8194 29.1897 28.5717 29.301 28.31 29.31Z" fill="#037FFF"/>
<path d="M7.80991 8.80991C7.6776 8.80936 7.54672 8.78256 7.42484 8.73106C7.30297 8.67957 7.19252 8.6044 7.09991 8.50991L4.99991 6.38991C4.86819 6.19741 4.80791 5.96492 4.82949 5.73267C4.85107 5.50042 4.95316 5.28302 5.11809 5.11809C5.28302 4.95316 5.50042 4.85107 5.73267 4.82949C5.96492 4.80791 6.19741 4.86819 6.38991 4.99991L8.50991 7.11991C8.65033 7.25918 8.7463 7.43696 8.78569 7.63078C8.82507 7.82459 8.8061 8.02573 8.73118 8.20876C8.65625 8.39179 8.52873 8.5485 8.36475 8.65906C8.20077 8.76962 8.00768 8.82908 7.80991 8.82991V8.80991Z" fill="#037FFF"/>
</svg>
