<?xml version="1.0" standalone="no"?>
<!DOCTYPE svg PUBLIC "-//W3C//DTD SVG 20010904//EN"
 "http://www.w3.org/TR/2001/REC-SVG-20010904/DTD/svg10.dtd">
<svg version="1.0" xmlns="http://www.w3.org/2000/svg"
 width="56.000000pt" height="56.000000pt" viewBox="0 0 1280.000000 981.000000"
 preserveAspectRatio="xMidYMid meet">
<metadata>
Created by potrace 1.15, written by Peter Selinger 2001-2017
</metadata>
<g transform="translate(0.000000,981.000000) scale(0.100000,-0.100000)"
fill="#037FFF" stroke="#037FFF">
<path d="M9760 9804 c-454 -31 -798 -91 -1203 -210 -681 -202 -1401 -592
-1942 -1052 -55 -47 -179 -165 -275 -261 -373 -374 -640 -740 -859 -1181 -109
-220 -161 -349 -271 -675 -106 -316 -154 -446 -231 -626 -285 -670 -673 -1271
-1273 -1974 -395 -463 -1282 -1396 -1355 -1425 -21 -8 -107 -65 -192 -126 -85
-61 -273 -194 -419 -294 -146 -101 -515 -356 -819 -568 -305 -212 -609 -421
-675 -464 -149 -98 -177 -125 -211 -199 -24 -53 -27 -75 -32 -219 -7 -190 2
-226 74 -289 56 -50 430 -241 471 -241 32 0 104 43 127 77 9 12 495 367 1081
790 587 422 1076 778 1088 791 51 56 639 326 1176 540 778 311 1640 586 2555
817 621 156 1368 317 1556 335 677 63 1420 316 2207 752 1076 595 1801 1290
2181 2089 316 666 364 1382 140 2102 -269 864 -1148 1421 -2379 1507 -132 9
-408 11 -520 4z m745 -49 c589 -70 1065 -254 1435 -552 125 -101 298 -289 365
-398 29 -46 13 -28 -52 60 -439 589 -1288 908 -2343 882 -310 -8 -542 -33
-824 -87 -60 -12 -110 -19 -112 -17 -6 6 177 44 346 72 130 21 370 48 520 59
117 8 541 -4 665 -19z m-1548 -121 c-3 -3 -12 -4 -19 -1 -8 3 -5 6 6 6 11 1
17 -2 13 -5z m1063 -261 c14 -9 37 -26 52 -38 l26 -22 -123 -87 c-68 -47 -130
-88 -137 -91 -14 -5 -208 139 -208 153 0 4 29 26 63 49 61 41 65 42 157 46 52
1 106 4 120 5 14 1 37 -6 50 -15z m170 8 c0 -3 -16 -16 -36 -29 l-35 -23 -29
23 c-16 13 -29 27 -29 31 -1 4 28 7 64 6 36 -1 65 -5 65 -8z m328 -22 c83 -10
101 -14 90 -24 -7 -7 -68 -51 -135 -98 l-122 -86 -100 77 c-55 42 -99 80 -98
84 1 4 20 21 42 37 39 31 42 31 130 26 50 -2 136 -10 193 -16z m-866 -19 c-23
-16 -45 -30 -48 -30 -3 0 -20 10 -37 23 l-32 22 45 6 c25 3 60 7 79 7 l34 2
-41 -30z m-112 -21 l35 -30 -30 -22 c-16 -12 -65 -47 -110 -78 l-80 -57 -103
81 c-56 44 -101 81 -100 82 3 2 169 31 278 48 57 9 76 5 110 -24z m1293 -15
c70 -15 124 -31 120 -35 -4 -4 -95 -68 -201 -144 l-193 -137 -47 37 c-26 21
-68 53 -94 73 l-47 35 102 72 c56 39 122 86 147 103 25 18 54 30 65 28 11 -2
78 -16 148 -32z m-1612 -101 c60 -47 106 -89 102 -93 -5 -4 -55 -39 -111 -79
-68 -47 -108 -69 -115 -63 -135 104 -207 166 -200 172 12 11 207 150 210 150
2 0 53 -39 114 -87z m1005 12 c52 -42 94 -77 94 -80 0 -5 -256 -185 -264 -185
-3 0 -51 35 -105 79 l-100 78 131 92 c72 50 135 91 140 91 5 0 52 -34 104 -75z
m-1277 -4 l-84 -59 -37 27 c-21 14 -38 29 -38 32 0 5 197 55 229 58 8 0 -24
-25 -70 -58z m749 -17 c53 -42 97 -80 97 -85 0 -7 -12 -16 -146 -111 l-65 -46
-103 80 c-56 44 -99 83 -96 86 8 9 209 151 213 152 2 0 47 -34 100 -76z m1432
27 c63 -21 130 -45 149 -53 l33 -15 -250 -177 c-138 -97 -254 -176 -256 -176
-13 0 -216 165 -213 173 5 15 391 286 407 287 9 0 67 -18 130 -39z m-2336 -50
c20 -16 36 -33 35 -38 -1 -4 -44 -39 -96 -76 l-95 -68 -76 59 c-43 33 -77 64
-77 68 0 9 225 82 256 83 9 1 33 -12 53 -28z m2666 -86 c61 -30 110 -59 110
-64 0 -14 -541 -393 -553 -388 -7 3 -52 37 -101 76 l-88 70 47 33 c26 18 140
99 253 180 114 81 210 147 215 147 4 1 57 -24 117 -54z m-2392 -130 c12 -10
-5 -26 -88 -85 -69 -49 -105 -69 -113 -62 -7 5 -56 44 -110 86 l-98 78 102 73
103 72 95 -75 c53 -41 102 -81 109 -87z m1380 86 c45 -35 82 -67 82 -70 -1 -5
-51 -41 -248 -178 -15 -10 -30 -2 -105 57 -48 38 -89 73 -90 77 -3 11 257 191
268 184 6 -3 47 -34 93 -70z m-1930 7 c42 -34 81 -65 85 -68 5 -4 -39 -42 -98
-84 l-107 -77 -46 36 c-26 21 -79 63 -119 93 -58 46 -69 58 -56 66 13 7 250
94 261 95 2 1 38 -27 80 -61z m1015 -90 l28 -23 -88 -60 c-48 -33 -98 -68
-113 -77 -25 -17 -26 -17 -128 63 l-103 81 112 78 112 78 76 -59 c42 -32 89
-69 104 -81z m400 52 c53 -41 96 -77 96 -80 0 -3 -49 -38 -109 -79 -70 -47
-113 -70 -122 -65 -46 27 -188 148 -181 155 18 18 208 148 214 146 3 -1 48
-36 102 -77z m-1670 -119 c59 -46 104 -87 102 -91 -3 -5 -50 -40 -105 -80
l-100 -71 -145 113 c-79 62 -144 116 -145 119 0 4 57 31 128 62 100 43 130 52
143 43 8 -6 63 -49 122 -95z m3377 94 c33 -17 151 -98 191 -130 l27 -22 -280
-197 c-154 -108 -285 -199 -292 -202 -11 -4 -229 159 -233 174 -2 8 537 391
550 392 4 0 21 -7 37 -15z m-2895 -117 c57 -44 102 -85 99 -89 -3 -5 -50 -40
-106 -79 -87 -60 -104 -68 -117 -57 -9 7 -58 46 -108 86 l-93 73 103 73 c56
41 106 74 110 74 5 1 55 -36 112 -81z m1929 -3 c58 -44 105 -82 105 -85 0 -3
-61 -47 -135 -98 -93 -65 -138 -91 -147 -85 -93 72 -207 167 -204 170 25 24
255 181 264 180 7 -1 60 -38 117 -82z m-1469 -16 c50 -39 94 -74 98 -79 9 -8
-178 -143 -198 -143 -6 0 -55 35 -108 77 l-97 78 97 69 c54 37 103 68 108 68
6 1 51 -31 100 -70z m575 -90 c0 -3 -49 -39 -109 -81 l-109 -76 -102 80 c-56
44 -100 81 -98 83 2 1 52 37 111 78 l109 76 98 -77 c55 -42 99 -80 100 -83z
m375 75 c47 -37 82 -71 78 -74 -20 -18 -196 -142 -206 -145 -7 -2 -53 29 -104
69 l-92 73 107 76 c59 42 112 74 119 72 6 -2 50 -34 98 -71z m-2172 -80 c81
-64 147 -119 147 -122 -1 -4 -48 -40 -106 -80 -73 -52 -108 -71 -117 -64 -7 5
-79 62 -162 127 -82 64 -154 121 -159 125 -7 7 221 127 244 129 3 1 72 -51
153 -115z m3997 -25 c50 -44 90 -82 90 -84 0 -5 -535 -384 -551 -390 -13 -5
-209 139 -209 153 0 10 552 400 568 401 7 1 53 -35 102 -80z m-3473 -31 c56
-44 101 -84 98 -87 -2 -4 -50 -39 -107 -78 l-103 -71 -100 80 c-55 44 -100 84
-100 90 0 11 184 147 200 147 6 1 56 -36 112 -81z m461 -5 c47 -38 93 -73 100
-79 12 -9 -7 -26 -94 -87 -63 -45 -112 -73 -119 -68 -5 4 -52 41 -103 81 l-93
72 103 73 c57 41 107 74 112 74 4 1 47 -29 94 -66z m1868 45 c16 -12 59 -46
97 -76 l67 -53 -127 -91 c-70 -50 -132 -92 -139 -95 -13 -5 -196 136 -192 148
3 9 249 187 259 188 4 1 19 -9 35 -21z m-1396 -75 l99 -77 -104 -73 -105 -73
-99 77 c-55 43 -100 80 -100 83 0 7 192 140 203 140 4 0 52 -35 106 -77z m460
6 c50 -39 90 -74 90 -78 0 -6 -172 -130 -201 -145 -13 -6 -37 7 -103 59 -47
36 -88 70 -91 75 -4 7 197 157 213 160 1 0 43 -32 92 -71z m476 -10 c57 -45
104 -84 104 -88 0 -7 -205 -151 -215 -151 -11 0 -210 161 -210 170 0 10 194
150 208 150 5 0 56 -37 113 -81z m-2651 -63 c91 -70 165 -131 165 -135 -1 -7
-205 -151 -214 -151 -15 0 -366 284 -359 291 16 15 228 129 235 127 5 -2 82
-61 173 -132z m4404 -19 c65 -70 123 -146 119 -156 -1 -5 -115 -89 -252 -185
l-249 -175 -76 59 c-145 113 -139 107 -116 123 55 40 530 377 532 377 2 0 20
-19 42 -43z m-3861 -48 c57 -45 101 -83 99 -86 -18 -17 -204 -143 -212 -143
-15 0 -200 148 -200 160 0 11 184 148 200 149 6 1 57 -35 113 -80z m520 -52
l54 -41 -28 -20 c-16 -12 -65 -46 -109 -77 l-81 -56 -96 76 c-54 42 -97 81
-96 86 1 6 47 42 102 81 l101 71 50 -40 c28 -22 74 -58 103 -80z m2347 27 c61
-47 110 -89 110 -94 0 -14 -256 -192 -269 -187 -6 3 -60 43 -119 90 l-108 85
133 95 c73 52 135 96 138 96 3 1 55 -38 115 -85z m-3669 -66 c101 -79 183
-145 183 -148 1 -3 -23 -22 -52 -42 -28 -20 -75 -53 -104 -73 l-52 -37 -186
147 c-102 80 -185 149 -185 153 0 6 198 140 209 142 2 0 86 -64 187 -142z
m1741 66 c51 -41 91 -79 88 -84 -8 -14 -194 -140 -205 -140 -14 0 -203 151
-197 156 15 15 204 143 211 144 5 0 51 -34 103 -76z m538 -83 c4 -8 -183 -143
-198 -143 -11 0 -186 135 -187 144 0 4 45 38 101 77 l101 70 89 -71 c49 -39
91 -74 94 -77z m390 64 c57 -44 104 -82 104 -85 0 -8 -207 -150 -219 -150 -9
0 -167 119 -213 160 -9 8 202 162 216 157 4 -1 55 -38 112 -82z m475 -10 c49
-39 89 -73 90 -76 0 -8 -207 -151 -217 -150 -6 1 -147 108 -186 142 -10 7 202
161 215 157 5 -2 49 -35 98 -73z m1858 30 c-3 -3 -9 2 -12 12 -6 14 -5 15 5 6
7 -7 10 -15 7 -18z m-4440 -146 c57 -45 102 -82 100 -84 -2 -1 -51 -36 -110
-78 l-107 -76 -106 84 -106 83 107 76 c59 42 110 76 113 76 3 0 52 -37 109
-81z m4482 46 c0 -5 -5 -3 -10 5 -5 8 -10 20 -10 25 0 6 5 3 10 -5 5 -8 10
-19 10 -25z m-3997 -68 l87 -69 -22 -17 c-13 -10 -61 -44 -107 -76 -96 -67
-77 -70 -207 32 -47 37 -81 70 -77 74 5 5 53 40 108 78 81 56 103 67 115 57 9
-6 55 -42 103 -79z m-1288 -63 c102 -81 185 -150 183 -155 -4 -11 -199 -149
-210 -149 -15 0 -369 282 -366 291 3 8 196 159 204 159 2 0 87 -66 189 -146z
m1834 -16 c1 -7 -178 -135 -201 -143 -17 -7 -212 145 -201 156 5 5 53 39 108
77 l99 69 97 -76 c54 -42 98 -79 98 -83z m-2499 138 c0 -2 -8 -10 -17 -17 -16
-13 -17 -12 -4 4 13 16 21 21 21 13z m2858 -58 c42 -34 83 -67 90 -73 11 -10
-7 -26 -89 -84 -56 -39 -105 -73 -108 -74 -4 -1 -51 32 -103 73 l-96 74 36 26
c21 15 66 48 102 73 36 26 71 47 78 47 8 0 48 -28 90 -62z m499 -48 c40 -30
72 -58 72 -62 1 -3 -44 -38 -99 -78 l-100 -71 -111 87 c-60 47 -108 88 -106
91 3 2 49 35 103 73 l98 69 36 -27 c20 -15 68 -52 107 -82z m1464 23 c54 -43
99 -81 99 -84 0 -13 -263 -190 -275 -185 -19 7 -195 147 -195 155 1 5 260 191
268 191 2 0 48 -35 103 -77z m953 -6 c29 -45 60 -96 69 -113 l16 -31 -210
-147 c-129 -91 -214 -144 -222 -140 -6 4 -58 43 -114 87 l-103 80 178 125 c97
69 206 147 242 173 36 26 71 48 78 48 7 1 36 -36 66 -82z m-1964 -8 c50 -39
88 -75 83 -79 -4 -4 -54 -40 -110 -79 l-103 -73 -94 74 c-52 40 -93 77 -92 83
4 16 200 154 213 150 7 -3 53 -36 103 -76z m473 -8 c59 -47 107 -88 107 -91 0
-8 -180 -137 -203 -146 -18 -7 -242 165 -230 177 19 19 209 149 213 146 3 -1
54 -40 113 -86z m-4499 -103 c-297 -304 -517 -589 -696 -903 -133 -234 -256
-527 -309 -739 -24 -98 -28 -110 -34 -104 -8 7 59 242 105 368 54 150 199 443
294 596 92 148 220 325 341 471 78 95 451 483 463 483 3 0 -71 -78 -164 -172z
m1444 -3 c50 -38 91 -73 91 -77 1 -7 -195 -148 -205 -148 -12 0 -204 155 -202
162 7 18 202 147 213 140 7 -4 53 -38 103 -77z m485 -18 l87 -69 -105 -74
c-59 -41 -111 -74 -116 -74 -13 0 -197 142 -198 152 -1 4 47 41 105 82 90 64
109 73 123 63 10 -7 56 -43 104 -80z m520 -50 c15 -12 27 -24 27 -27 0 -3 -48
-39 -106 -79 l-105 -73 -72 56 c-40 30 -85 66 -101 79 l-29 24 108 76 108 76
71 -56 c39 -31 83 -65 99 -76z m-1805 -22 c99 -77 180 -143 179 -147 -1 -4
-46 -39 -101 -77 l-98 -70 -72 56 c-39 30 -117 92 -174 136 -56 44 -101 83
-100 87 5 12 173 160 179 157 3 -1 87 -65 187 -142z m2205 62 c48 -38 87 -70
87 -72 0 -7 -202 -145 -212 -145 -12 0 -188 139 -188 148 1 13 205 150 215
144 6 -3 49 -37 98 -75z m500 -36 c37 -29 67 -56 67 -59 -1 -4 -48 -40 -106
-80 l-106 -72 -109 87 c-60 47 -107 88 -105 90 2 2 50 37 107 77 l104 74 40
-32 c22 -18 70 -56 108 -85z m430 6 c48 -38 87 -72 87 -75 -1 -8 -171 -129
-193 -137 -14 -6 -192 129 -192 146 0 15 188 147 200 141 6 -3 49 -37 98 -75z
m482 -12 c55 -44 102 -81 105 -83 6 -4 -19 -24 -131 -101 l-86 -60 -109 85
c-60 47 -109 90 -109 95 0 16 208 159 219 150 6 -4 56 -43 111 -86z m1011 14
c57 -44 104 -82 104 -84 0 -2 -61 -46 -135 -100 -83 -59 -140 -93 -148 -89 -6
5 -54 41 -105 82 -77 62 -91 77 -80 88 13 13 250 183 256 184 2 0 51 -36 108
-81z m-535 -26 c54 -43 99 -81 99 -85 0 -3 -48 -40 -106 -82 l-106 -75 -101
81 c-56 45 -100 84 -98 87 5 7 204 150 209 151 2 0 48 -35 103 -77z m1412 -85
c30 -68 69 -163 87 -213 30 -85 32 -96 27 -195 -6 -106 -24 -228 -53 -355 -19
-80 -24 -91 -33 -76 -5 7 -29 -5 -68 -34 l-61 -44 -106 84 -106 84 142 100
141 99 43 -34 c29 -24 44 -31 50 -23 4 7 -8 24 -31 43 l-37 32 51 34 c28 19
51 41 51 48 0 19 -10 15 -70 -27 l-56 -40 -97 76 c-53 42 -97 78 -97 82 0 3
61 48 135 100 74 52 135 97 135 101 0 22 -25 9 -147 -77 -75 -53 -142 -96
-149 -97 -22 -2 -224 158 -213 168 13 14 393 284 400 285 4 1 31 -54 62 -121z
m-4950 6 c53 -42 97 -80 97 -84 0 -7 -181 -137 -204 -146 -15 -6 -208 139
-205 153 1 8 199 153 209 153 3 0 49 -34 103 -76z m481 -24 c47 -36 85 -68 86
-71 0 -9 -191 -142 -206 -143 -13 -1 -204 143 -204 153 1 3 47 38 103 77 84
59 105 69 119 60 9 -6 55 -40 102 -76z m461 1 c52 -41 95 -77 95 -80 -1 -6
-194 -143 -211 -149 -9 -4 -194 138 -198 151 -2 9 200 156 211 154 4 -1 50
-35 103 -76z m463 -6 c50 -38 91 -73 92 -77 0 -8 -197 -148 -209 -148 -14 0
-192 142 -189 151 4 11 201 150 209 146 3 -1 46 -33 97 -72z m480 -24 c50 -40
90 -76 87 -81 -3 -4 -50 -39 -104 -78 l-100 -70 -104 81 c-57 45 -103 87 -103
92 -1 6 45 42 100 81 83 59 104 70 116 60 8 -7 57 -45 108 -85z m-2645 -60
c86 -68 157 -124 157 -126 0 -2 -45 -36 -100 -75 l-99 -71 -156 121 c-85 67
-155 125 -155 128 0 4 37 44 82 89 70 71 84 81 98 69 8 -7 86 -68 173 -135z
m3102 58 c50 -39 90 -74 90 -79 0 -11 -196 -151 -207 -148 -4 2 -50 36 -103
77 l-95 73 103 73 c56 41 107 74 112 74 6 0 51 -31 100 -70z m467 -21 c57 -46
105 -87 105 -93 1 -9 -184 -145 -196 -145 -4 0 -56 40 -118 89 l-111 89 96 70
c53 39 102 71 108 71 6 1 58 -36 116 -81z m1513 -13 c57 -44 104 -82 104 -85
0 -10 -261 -185 -275 -185 -14 0 -223 155 -223 165 0 10 265 189 277 187 7 -1
60 -38 117 -82z m-1017 -12 c50 -40 92 -75 92 -77 0 -6 -196 -145 -209 -148
-13 -3 -211 143 -208 154 4 15 212 156 222 150 5 -3 52 -39 103 -79z m465 -4
c56 -44 103 -83 104 -87 2 -6 -184 -139 -208 -150 -4 -2 -55 34 -112 80 l-105
82 56 41 c31 22 80 57 107 77 28 20 51 37 53 37 1 1 49 -35 105 -80z m-4005
-74 c50 -38 91 -73 91 -76 1 -3 -45 -37 -101 -76 l-103 -70 -102 80 -103 80
58 41 c117 85 147 104 158 98 7 -4 52 -38 102 -77z m467 -4 c52 -40 95 -76 95
-80 0 -7 -205 -151 -215 -151 -3 0 -50 35 -105 79 l-100 78 108 76 c59 42 110
75 114 74 4 -1 50 -35 103 -76z m468 -14 c48 -38 87 -72 87 -77 0 -5 -154
-118 -196 -143 -11 -7 -199 136 -199 152 0 15 198 150 210 143 6 -3 49 -37 98
-75z m463 1 c51 -40 93 -76 94 -80 0 -4 -48 -40 -107 -82 l-106 -75 -80 62
c-131 103 -124 96 -107 106 8 6 57 39 109 75 52 36 97 66 99 66 2 0 46 -33 98
-72z m483 -23 c49 -38 90 -73 90 -77 1 -4 -45 -39 -100 -79 -95 -67 -103 -71
-124 -58 -42 26 -195 149 -194 157 0 4 46 39 102 79 85 59 105 69 119 60 9 -7
57 -43 107 -82z m457 -6 c49 -39 90 -74 92 -78 2 -6 -145 -115 -196 -145 -11
-7 -200 129 -201 146 -1 9 191 147 205 147 6 1 51 -31 100 -70z m474 -16 c61
-47 110 -89 110 -92 0 -6 -160 -122 -197 -145 -12 -7 -233 157 -233 173 0 5
199 150 208 151 1 0 52 -39 112 -87z m-3557 -39 c81 -63 147 -118 147 -122 0
-4 -43 -37 -95 -74 l-95 -68 -128 101 c-70 56 -128 105 -130 109 -4 12 133
170 148 170 3 0 71 -52 153 -116z m4038 7 l99 -79 -101 -73 c-92 -65 -104 -71
-123 -59 -35 21 -186 143 -186 149 0 8 192 141 203 141 5 0 54 -36 108 -79z
m482 -13 l98 -77 -41 -30 c-129 -93 -179 -123 -193 -115 -25 15 -196 149 -196
154 -1 11 215 157 224 152 6 -4 54 -41 108 -84z m1020 11 c56 -45 102 -85 102
-89 0 -5 -61 -51 -135 -103 l-135 -94 -75 58 c-41 32 -90 71 -109 87 l-35 29
105 73 c57 40 118 83 134 96 17 13 33 23 38 24 4 0 53 -36 110 -81z m-542 -25
l108 -87 -105 -74 c-66 -47 -111 -72 -121 -69 -19 7 -212 159 -212 166 0 7
202 149 213 149 4 1 57 -38 117 -85z m-4487 -40 c53 -42 95 -79 92 -81 -2 -2
-48 -35 -102 -73 -84 -59 -101 -67 -114 -56 -8 7 -51 41 -95 76 -44 35 -80 67
-80 71 0 11 176 138 191 139 6 0 54 -34 108 -76z m464 -19 c50 -38 91 -72 91
-75 0 -7 -196 -140 -206 -140 -12 0 -195 146 -195 154 1 16 196 145 208 138 6
-4 52 -38 102 -77z m450 8 c47 -38 93 -73 100 -79 12 -9 -7 -26 -96 -88 l-111
-77 -101 80 -101 80 107 75 c59 42 110 76 112 76 2 0 43 -30 90 -67z m467 -14
c50 -38 94 -74 98 -78 8 -8 -184 -151 -203 -151 -11 0 -199 142 -199 150 -1 5
200 149 209 150 3 0 46 -32 95 -71z m485 -15 l109 -87 -110 -77 -111 -78 -110
86 c-110 86 -111 86 -87 101 12 9 61 44 108 78 48 34 87 62 89 63 1 0 52 -39
112 -86z m473 -17 c48 -38 87 -72 87 -76 0 -15 -201 -151 -213 -144 -7 4 -52
38 -100 77 -64 50 -85 72 -77 80 30 31 196 142 205 137 6 -2 49 -36 98 -74z
m468 -13 c60 -47 109 -89 109 -93 0 -6 -144 -111 -196 -143 -10 -7 -225 151
-231 170 -2 6 194 150 205 152 2 0 53 -39 113 -86z m-3508 -51 c64 -51 117
-95 117 -98 0 -6 -182 -135 -192 -135 -19 0 -197 146 -192 158 9 29 130 179
139 174 6 -3 63 -48 128 -99z m3997 23 l99 -78 -105 -75 c-58 -41 -111 -72
-117 -70 -15 6 -191 147 -194 155 -3 9 199 152 210 149 4 -1 52 -37 107 -81z
m460 -13 c54 -43 99 -81 100 -84 1 -14 -204 -149 -214 -141 -172 132 -197 155
-184 168 21 21 182 134 191 134 4 0 52 -35 107 -77z m481 -14 c57 -45 105 -85
107 -89 2 -6 -146 -117 -204 -152 -5 -4 -60 33 -122 81 l-111 88 107 76 c59
42 110 76 113 76 4 1 54 -35 110 -80z m1030 4 c55 -42 96 -80 92 -83 -4 -4
-68 -49 -140 -99 -85 -59 -137 -90 -145 -85 -48 30 -188 148 -181 154 11 11
267 190 271 190 2 0 48 -35 103 -77z m-540 -29 c61 -48 106 -90 102 -94 -25
-22 -202 -140 -210 -140 -6 0 -56 36 -112 81 -77 61 -100 84 -92 93 11 11 193
143 199 145 2 1 53 -38 113 -85z m-4951 -15 c50 -39 88 -75 83 -79 -29 -27
-185 -131 -192 -128 -16 6 -190 143 -191 150 0 13 184 139 197 134 7 -3 53
-37 103 -77z m463 -23 l88 -68 -98 -69 c-54 -38 -102 -69 -108 -69 -16 0 -198
146 -194 156 1 5 46 39 98 75 78 54 99 65 111 55 9 -6 55 -42 103 -80z m446
-5 l100 -78 -105 -72 -105 -73 -72 56 c-40 31 -85 66 -101 79 l-29 23 99 71
c54 39 102 72 107 72 4 1 52 -34 106 -78z m466 -3 c52 -40 94 -76 94 -80 1 -9
-197 -148 -210 -148 -15 0 -199 143 -196 153 3 10 199 147 210 147 5 0 51 -33
102 -72z m544 -76 l34 -28 -102 -72 c-56 -40 -106 -72 -111 -72 -11 0 -216
161 -213 167 1 2 48 37 105 77 l103 73 75 -58 c41 -32 90 -71 109 -87z m394
57 c51 -40 96 -75 100 -79 5 -4 -40 -42 -99 -85 -91 -65 -110 -76 -126 -66
-10 6 -56 41 -103 78 l-84 66 57 41 c31 23 80 58 107 78 28 20 52 37 53 37 2
1 45 -31 95 -70z m485 -28 l112 -89 -107 -75 -106 -75 -71 55 c-39 31 -90 70
-113 87 -23 17 -42 33 -42 36 0 5 201 149 209 150 3 0 56 -40 118 -89z m480
-22 l102 -80 -106 -76 c-74 -52 -111 -73 -120 -67 -58 40 -193 150 -191 156 2
7 199 148 207 148 3 0 51 -36 108 -81z m456 -1 c50 -39 97 -77 105 -84 11 -10
-7 -26 -94 -88 l-108 -75 -76 59 c-133 103 -138 109 -121 119 8 5 56 39 105
75 50 36 92 65 94 66 2 0 44 -32 95 -72z m486 -35 l111 -87 -23 -18 c-99 -76
-189 -130 -200 -121 -7 6 -57 45 -111 87 l-98 78 103 74 c57 40 104 73 105 74
2 0 53 -39 113 -87z m-4843 -37 c23 -17 42 -34 43 -37 0 -3 -43 -36 -95 -73
l-95 -68 -53 43 c-28 24 -56 46 -60 50 -5 4 7 32 27 63 19 31 47 74 61 96 l26
41 52 -42 c29 -23 71 -56 94 -73z m396 21 c48 -38 87 -72 87 -77 0 -4 -43 -37
-95 -74 l-95 -67 -93 73 c-51 40 -94 77 -95 82 -5 12 181 144 193 138 6 -4 49
-37 98 -75z m4937 -3 l110 -87 -111 -78 -112 -78 -76 59 c-42 32 -91 72 -109
87 l-33 28 108 77 c59 42 109 77 111 77 1 1 52 -38 112 -85z m-4482 -24 l93
-72 -88 -62 c-48 -34 -94 -65 -101 -70 -8 -5 -48 21 -112 71 -55 43 -100 80
-100 83 1 13 196 137 205 131 6 -5 52 -41 103 -81z m5022 -43 c22 -17 31 -30
24 -35 -6 -4 -54 -38 -107 -75 -60 -42 -102 -65 -110 -61 -50 31 -187 148
-180 155 5 5 53 40 108 78 l98 70 66 -52 c37 -29 82 -64 101 -80z m-4575 34
c52 -41 95 -77 95 -80 0 -3 -45 -37 -101 -74 l-100 -69 -72 56 c-40 31 -85 66
-101 79 l-29 23 99 71 c55 39 102 70 106 70 4 -1 50 -35 103 -76z m459 -13
c52 -40 95 -76 95 -80 1 -3 -44 -38 -99 -78 -88 -62 -102 -69 -118 -58 -79 57
-182 143 -180 149 4 12 181 137 195 138 7 1 55 -32 107 -71z m479 -18 c53 -41
96 -78 97 -81 0 -12 -204 -150 -216 -145 -6 2 -57 40 -112 82 l-100 78 61 45
c34 24 82 59 107 77 25 18 50 29 56 26 6 -4 54 -41 107 -82z m475 -19 c45 -35
82 -67 82 -70 0 -7 -196 -151 -206 -151 -2 0 -49 35 -104 78 l-98 78 106 76
c86 61 110 73 123 64 8 -6 52 -40 97 -75z m473 -7 c60 -47 109 -87 109 -89 0
-1 -49 -37 -109 -79 l-110 -77 -110 87 c-61 48 -111 90 -111 93 1 8 202 150
213 151 5 0 58 -39 118 -86z m478 -21 c55 -43 100 -80 100 -83 0 -3 -47 -38
-105 -78 l-104 -73 -105 82 c-58 45 -103 84 -101 86 13 13 202 143 208 143 5
0 53 -35 107 -77z m461 -9 c52 -41 99 -79 103 -83 9 -9 -184 -151 -203 -151
-12 0 -209 151 -209 160 0 5 200 148 209 149 3 1 48 -33 100 -75z m486 -25
c57 -45 104 -85 104 -89 0 -5 -149 -114 -197 -143 -9 -5 -50 20 -124 79 l-110
86 38 27 c139 100 169 120 176 121 5 0 55 -37 113 -81z m-4433 -12 c48 -38 87
-72 87 -76 -1 -3 -43 -35 -95 -70 l-95 -64 -43 34 c-24 19 -66 52 -95 74 -28
22 -50 43 -49 47 4 16 182 136 192 130 5 -3 49 -37 98 -75z m5013 -106 c-3 -3
-49 -37 -104 -75 -90 -61 -102 -67 -119 -55 -52 37 -193 153 -193 158 0 3 46
38 102 77 l102 71 108 -85 c59 -46 106 -88 104 -91z m-4573 93 c53 -42 97 -79
97 -83 0 -6 -172 -129 -188 -133 -10 -3 -202 142 -202 153 0 7 179 138 190
139 3 0 49 -34 103 -76z m4945 -10 c53 -42 98 -79 99 -83 4 -11 -208 -153
-222 -147 -7 2 -55 37 -105 77 l-91 72 52 36 c28 20 77 55 108 78 31 23 57 42
59 42 2 1 47 -33 100 -75z m-4480 -23 c45 -35 82 -67 82 -70 -1 -9 -188 -136
-197 -134 -18 5 -193 147 -191 154 2 5 45 38 97 73 79 55 96 63 110 53 9 -7
54 -41 99 -76z m4955 9 c53 -41 96 -78 97 -82 0 -9 -194 -148 -208 -148 -5 0
-56 36 -111 79 l-102 80 108 76 c59 41 110 74 113 73 4 -2 50 -37 103 -78z
m-6258 26 l54 -43 -101 -72 c-79 -57 -103 -70 -114 -61 -11 10 -10 19 7 53 38
74 91 167 96 167 2 0 28 -20 58 -44z m1746 -42 c54 -43 99 -80 99 -83 -1 -9
-187 -136 -199 -136 -13 0 -201 145 -201 155 0 6 188 140 198 140 2 0 48 -34
103 -76z m469 -22 c52 -41 95 -78 95 -83 0 -5 -45 -41 -99 -79 l-99 -69 -66
51 c-36 29 -85 68 -108 86 l-43 34 103 73 c56 40 107 70 112 67 6 -3 53 -39
105 -80z m470 -12 l100 -79 -33 -24 c-134 -98 -179 -127 -190 -120 -30 18
-187 145 -187 151 1 6 199 150 208 152 1 0 47 -36 102 -80z m477 -19 l112 -88
-42 -30 c-23 -16 -72 -50 -108 -76 l-66 -47 -109 86 c-60 47 -110 89 -111 92
-2 6 195 150 207 151 3 0 55 -39 117 -88z m496 -24 c48 -38 87 -72 87 -75 -1
-7 -193 -143 -211 -150 -10 -4 -209 150 -206 160 1 4 49 41 107 81 85 61 107
73 120 63 9 -6 55 -42 103 -79z m2867 79 c0 -2 -18 -58 -39 -123 -271 -827
-957 -1635 -1883 -2217 -147 -92 -382 -226 -398 -226 -12 0 -370 281 -370 290
0 13 191 142 203 137 6 -3 95 -71 197 -151 102 -80 189 -146 193 -146 28 0
-20 45 -186 175 -104 81 -187 148 -185 150 2 1 47 34 101 73 l99 70 166 -130
c92 -72 184 -144 205 -161 25 -19 42 -26 48 -20 6 6 -60 64 -185 162 -108 84
-198 156 -201 161 -3 4 41 41 96 81 84 59 105 70 119 61 10 -6 102 -77 205
-157 122 -96 191 -143 197 -137 6 6 -60 64 -192 167 l-201 157 103 73 103 73
39 -32 c277 -220 351 -275 360 -266 5 5 8 11 5 13 -2 2 -89 70 -192 152 -104
81 -185 151 -180 155 45 42 209 148 217 141 6 -4 87 -68 180 -141 158 -124
190 -145 198 -129 2 4 -76 68 -172 144 -96 75 -179 140 -183 145 -7 6 173 143
205 155 7 3 87 -54 178 -125 91 -72 168 -130 172 -130 29 0 -4 32 -148 144
-90 71 -164 132 -164 136 0 3 45 39 100 78 l100 72 139 -110 c129 -103 161
-123 161 -102 0 5 -61 57 -135 116 -75 59 -133 111 -130 116 9 14 193 142 202
141 4 -1 56 -40 116 -86 59 -47 112 -85 117 -85 25 0 2 25 -100 106 -61 48
-107 91 -103 94 5 4 49 35 98 70 50 35 95 67 100 71 6 4 46 -22 90 -57 51 -41
82 -59 86 -52 5 7 -22 35 -67 71 -42 33 -72 63 -67 67 20 19 194 140 199 140
4 0 22 -11 40 -25 23 -17 35 -22 40 -14 4 7 -4 20 -19 31 -15 11 -27 23 -27
28 0 5 36 34 80 65 75 53 95 75 69 75 -6 0 -49 -27 -95 -61 l-84 -61 -106 83
c-58 45 -107 85 -109 88 -1 3 46 41 106 83 l110 78 94 -75 c52 -41 99 -75 104
-75 25 0 6 22 -74 84 -46 37 -87 70 -90 76 -6 10 185 150 204 150 7 0 27 -11
46 -26 44 -33 56 -14 14 24 l-32 28 49 37 c45 33 64 43 64 33z m-2411 -86 c56
-44 101 -82 101 -84 0 -6 -199 -146 -206 -146 -4 0 -53 36 -110 81 l-103 81
102 74 c56 40 105 73 109 73 4 1 52 -35 107 -79z m-3935 -16 c47 -37 86 -70
86 -74 0 -3 -45 -37 -99 -74 l-99 -68 -96 77 -96 77 97 69 c54 38 103 67 110
65 6 -3 50 -35 97 -72z m4401 5 c50 -39 97 -77 105 -85 16 -16 23 -10 -111
-103 l-86 -60 -111 86 -111 87 57 41 c111 80 147 104 157 104 6 1 51 -31 100
-70z m-3970 -20 c50 -38 94 -74 98 -78 7 -7 -171 -141 -188 -141 -9 0 -195
151 -195 159 0 8 172 130 185 130 6 1 51 -31 100 -70z m4461 -10 c57 -45 104
-85 104 -89 0 -5 -148 -113 -197 -143 -14 -8 -226 150 -221 165 3 7 198 147
207 148 2 0 50 -37 107 -81z m-4032 6 c39 -30 84 -65 100 -78 l28 -23 -97 -67
c-54 -38 -104 -66 -111 -63 -16 6 -196 148 -192 151 14 12 193 135 196 135 3
0 37 -25 76 -55z m4569 -78 c15 -12 27 -24 27 -28 0 -4 -45 -40 -101 -79
l-101 -71 -71 55 c-127 98 -134 105 -117 115 8 6 55 39 105 74 l90 64 70 -55
c38 -30 82 -64 98 -75z m407 46 c54 -43 99 -81 100 -85 0 -15 -213 -158 -224
-149 -158 121 -196 155 -186 165 17 17 194 144 203 145 4 1 52 -34 107 -76z
m-4495 -12 c52 -40 95 -76 95 -80 0 -3 -44 -37 -96 -74 l-96 -68 -71 55 c-40
30 -87 68 -105 83 l-34 28 98 68 c54 37 102 66 106 65 4 -2 50 -36 103 -77z
m461 -22 c57 -44 104 -82 104 -84 0 -2 -45 -35 -100 -75 l-100 -71 -105 82
c-58 45 -104 86 -103 90 4 10 180 138 191 139 5 0 56 -36 113 -81z m465 -16
c54 -43 99 -80 98 -83 0 -3 -46 -37 -102 -76 l-102 -71 -75 58 c-41 33 -87 69
-103 81 l-27 23 102 72 c57 40 104 72 106 73 2 0 48 -35 103 -77z m483 -25
l106 -83 -27 -20 c-15 -11 -63 -45 -108 -76 l-80 -56 -112 86 c-61 47 -112 88
-112 91 0 11 205 149 215 145 7 -2 60 -41 118 -87z m-3104 68 c0 -3 -4 -8 -10
-11 -5 -3 -10 -1 -10 4 0 6 5 11 10 11 6 0 10 -2 10 -4z m3585 -88 c52 -40 94
-75 94 -78 1 -9 -204 -145 -216 -144 -16 2 -202 147 -200 156 4 16 202 148
215 143 7 -3 56 -38 107 -77z m468 -4 c53 -42 97 -80 97 -84 0 -10 -197 -150
-211 -150 -10 0 -203 148 -206 159 -2 7 198 150 212 150 6 1 54 -33 108 -75z
m-3925 -8 l92 -74 -115 -82 -116 -81 -55 41 c-30 24 -54 47 -54 52 0 5 16 46
35 91 26 59 44 88 68 104 17 12 37 22 42 22 6 1 52 -32 103 -73z m4405 -18
c53 -43 97 -81 96 -85 -3 -9 -191 -143 -201 -143 -10 0 -218 162 -217 169 1
13 205 148 214 143 6 -3 54 -41 108 -84z m-3962 5 c54 -43 98 -80 98 -83 0 -5
-194 -140 -202 -140 -7 0 -192 151 -194 159 -2 5 186 141 196 141 2 0 47 -35
102 -77z m512 -76 c15 -12 27 -24 27 -27 0 -4 -43 -37 -95 -74 l-96 -67 -86
68 c-48 37 -94 73 -102 79 -11 9 5 24 85 81 l99 70 70 -55 c38 -30 82 -64 98
-75z m3925 52 c56 -44 102 -83 102 -87 0 -7 -197 -147 -207 -147 -11 0 -212
160 -210 167 2 8 197 148 206 148 3 0 52 -36 109 -81z m-3489 -62 l53 -41 -28
-23 c-16 -13 -61 -45 -100 -72 l-70 -49 -102 79 c-56 44 -102 83 -102 87 1 4
45 37 98 73 l97 66 50 -40 c28 -22 74 -58 104 -80z m3961 47 c52 -42 96 -77
98 -79 2 -2 -45 -37 -104 -79 -67 -48 -111 -73 -118 -68 -78 60 -181 146 -181
153 0 7 193 148 205 149 3 0 48 -34 100 -76z m454 -6 c50 -39 97 -77 104 -83
11 -10 -6 -26 -88 -84 -55 -39 -104 -71 -109 -71 -4 0 -54 36 -110 81 l-102
81 103 73 c57 41 105 74 107 74 2 1 44 -31 95 -71z m-4003 -32 c116 -91 118
-76 -16 -169 l-80 -55 -108 85 -108 85 98 69 c53 38 101 68 105 67 4 -2 53
-39 109 -82z m554 -96 c3 -5 -188 -145 -198 -145 -11 0 -197 151 -194 159 1 4
45 39 97 76 l95 67 98 -76 c54 -41 100 -78 102 -81z m377 54 c60 -48 106 -90
101 -94 -11 -10 -175 -125 -190 -134 -15 -8 -237 164 -226 175 18 18 189 138
196 139 5 0 58 -39 119 -86z m479 -21 c54 -43 98 -80 98 -83 0 -3 -47 -37
-105 -77 l-104 -72 -105 81 c-58 45 -102 85 -98 89 22 20 198 139 206 139 5 0
53 -35 108 -77z m474 -15 c52 -40 94 -76 94 -79 1 -7 -179 -136 -202 -144 -10
-4 -51 22 -116 72 -55 43 -100 80 -100 83 0 12 205 148 217 144 8 -2 56 -37
107 -76z m-3475 -4 c52 -42 96 -79 97 -82 2 -4 -19 -21 -45 -39 -26 -17 -77
-52 -114 -78 l-66 -46 -100 78 c-56 43 -101 80 -101 83 0 5 220 159 229 159 3
1 48 -33 100 -75z m3955 -9 c57 -44 103 -83 102 -87 -1 -4 -50 -40 -108 -81
l-107 -75 -106 84 c-59 45 -106 87 -105 91 3 11 202 152 212 150 4 -1 55 -38
112 -82z m-3496 -16 c50 -40 88 -76 85 -80 -2 -4 -47 -37 -100 -74 l-95 -66
-100 80 -100 80 68 47 c37 26 82 58 98 70 17 13 36 21 42 19 7 -2 53 -37 102
-76z m3972 -8 c55 -44 99 -83 98 -88 -2 -9 -190 -143 -200 -143 -5 0 -197 146
-217 165 -4 4 200 145 210 145 5 0 54 -36 109 -79z m-3537 -3 c50 -39 97 -77
104 -83 10 -9 -8 -26 -83 -79 -55 -38 -103 -65 -111 -62 -8 3 -57 40 -109 82
l-95 76 97 69 c54 37 100 68 102 68 2 1 44 -31 95 -71z m4001 -9 c50 -38 94
-74 98 -78 9 -9 -183 -151 -203 -151 -19 0 -203 152 -194 160 17 15 198 140
203 140 4 0 47 -32 96 -71z m473 -15 c53 -42 98 -80 100 -84 1 -4 -43 -40
-100 -80 -118 -83 -94 -85 -230 22 l-89 70 38 27 c139 100 169 120 176 121 5
0 52 -34 105 -76z m-4002 -16 c58 -45 101 -84 97 -88 -53 -46 -187 -131 -198
-126 -25 9 -206 158 -200 164 16 16 181 131 189 132 4 0 55 -37 112 -82z
m-1749 -4 c2 -8 -149 -116 -154 -110 -1 1 12 43 29 94 l31 92 46 -34 c25 -19
46 -38 48 -42z m6229 -5 c57 -45 104 -84 104 -88 0 -3 -15 -16 -33 -28 -17
-11 -64 -44 -103 -71 l-70 -51 -107 86 c-59 46 -107 88 -107 91 1 8 192 141
204 142 4 0 55 -37 112 -81z m-4035 -5 c46 -36 90 -71 97 -78 11 -11 -5 -26
-86 -83 l-99 -70 -97 76 c-53 42 -97 80 -97 84 0 10 172 136 187 137 6 0 49
-30 95 -66z m561 -100 l28 -23 -101 -71 c-57 -40 -105 -67 -112 -63 -29 17
-217 166 -214 170 3 2 48 35 102 73 l98 69 86 -66 c47 -37 98 -77 113 -89z
m396 37 c50 -40 90 -77 87 -82 -10 -16 -195 -141 -203 -137 -14 5 -201 153
-202 158 0 12 206 148 215 141 5 -4 52 -40 103 -80z m460 -8 c53 -42 99 -78
102 -80 6 -5 -20 -25 -126 -98 l-82 -57 -100 79 c-56 43 -100 82 -99 86 3 10
188 146 200 147 4 0 51 -35 105 -77z m490 -27 l101 -80 -104 -73 c-56 -40
-107 -73 -113 -73 -14 0 -213 157 -211 167 5 16 204 151 215 145 6 -4 56 -43
112 -86z m-3967 5 l98 -79 -226 -158 c-124 -88 -233 -163 -241 -168 -20 -12
-12 48 30 217 l31 128 96 69 c53 38 100 69 105 69 4 1 53 -34 107 -78z m474 3
c52 -42 95 -79 95 -83 -1 -3 -52 -41 -114 -83 l-113 -77 -94 76 c-52 41 -94
79 -94 83 0 9 204 158 218 159 4 1 50 -33 102 -75z m3978 -24 c53 -41 96 -77
97 -80 0 -7 -207 -150 -218 -150 -19 0 -214 162 -205 171 33 33 209 147 218
141 7 -4 55 -41 108 -82z m-3522 3 c54 -43 99 -81 99 -85 0 -3 -22 -22 -50
-42 -27 -20 -72 -52 -99 -71 l-49 -35 -98 80 c-55 44 -99 85 -99 91 0 11 173
138 188 139 5 0 53 -35 108 -77z m557 -113 c3 -8 -179 -140 -193 -140 -3 0
-51 37 -107 81 -115 93 -116 78 12 167 l84 59 101 -79 c55 -44 101 -83 103
-88z m3427 98 c52 -40 94 -76 94 -79 1 -7 -196 -149 -205 -149 -2 0 -49 36
-104 79 l-100 79 97 70 c54 39 104 71 111 71 8 1 56 -32 107 -71z m465 -14
c52 -42 96 -79 98 -83 2 -6 -150 -119 -195 -145 -13 -7 -216 147 -212 161 3
11 191 142 204 143 6 0 53 -34 105 -76z m481 -21 c60 -47 106 -90 102 -93 -17
-15 -193 -140 -201 -142 -10 -3 -222 160 -222 170 1 6 198 149 208 151 1 1 52
-38 113 -86z m-3939 -65 l28 -23 -89 -62 c-48 -35 -95 -65 -103 -68 -8 -3 -54
25 -112 71 -112 88 -114 74 14 163 l84 59 76 -59 c41 -32 87 -69 102 -81z
m395 25 c117 -92 119 -74 -14 -167 l-83 -57 -111 87 c-72 56 -107 90 -101 96
33 33 189 135 197 128 6 -4 56 -43 112 -87z m468 -25 c52 -40 94 -75 94 -78 1
-10 -183 -134 -199 -134 -15 0 -209 143 -209 154 0 12 195 139 207 135 7 -3
55 -37 107 -77z m462 -14 c54 -43 99 -78 101 -79 5 -4 -196 -145 -208 -145 -6
0 -56 36 -110 79 l-100 79 97 70 c54 39 103 71 110 71 6 1 55 -33 110 -75z
m477 -24 c52 -41 95 -78 96 -82 0 -3 -45 -39 -101 -78 l-101 -71 -95 73 c-52
40 -102 79 -111 86 -15 11 -14 14 8 30 144 102 187 129 197 123 6 -3 54 -40
107 -81z m-3494 -12 c50 -39 87 -75 83 -79 -17 -14 -731 -509 -735 -509 -3 0
-4 10 -2 23 2 12 11 81 20 152 9 72 19 135 23 142 11 21 496 353 508 348 7 -2
53 -37 103 -77z m474 1 c55 -45 100 -83 99 -86 -1 -2 -52 -40 -112 -83 l-111
-79 -106 86 c-58 46 -104 87 -101 89 15 15 214 153 221 153 4 1 54 -35 110
-80z m3495 -5 l110 -87 -105 -73 c-58 -41 -109 -74 -113 -74 -4 0 -54 36 -110
81 -65 51 -99 85 -93 91 8 8 194 146 199 147 2 1 52 -38 112 -85z m-3031 -19
c56 -44 101 -82 101 -85 1 -3 -45 -37 -101 -76 l-102 -71 -102 81 c-57 45
-102 85 -101 89 3 10 190 146 198 144 3 -1 51 -38 107 -82z m3513 6 l100 -79
-100 -71 c-55 -39 -106 -74 -114 -76 -11 -5 -207 138 -207 150 0 5 211 155
217 155 2 0 49 -36 104 -79z m472 -22 l98 -78 -100 -70 c-55 -39 -104 -71
-110 -71 -11 0 -210 151 -210 160 0 11 205 147 214 142 6 -3 54 -41 108 -83z
m-3535 -5 c53 -42 98 -80 100 -83 3 -8 -180 -141 -193 -141 -12 0 -192 144
-194 155 -1 8 173 142 187 145 2 0 47 -34 100 -76z m4003 -10 c60 -47 109 -87
109 -89 0 -2 -45 -35 -101 -75 -64 -46 -106 -70 -116 -66 -18 7 -212 159 -212
166 0 5 200 149 207 150 2 0 53 -39 113 -86z m-3498 -53 c37 -29 67 -56 67
-59 -1 -4 -44 -37 -97 -74 l-96 -67 -76 59 c-108 84 -147 117 -141 122 3 3 47
35 99 71 l94 67 41 -33 c23 -19 71 -57 109 -86z m426 2 c55 -43 100 -81 100
-84 1 -7 -184 -139 -194 -139 -12 0 -205 154 -203 162 4 9 180 137 190 137 5
1 53 -34 107 -76z m469 -28 c50 -38 91 -73 92 -77 0 -3 -44 -38 -99 -76 l-98
-70 -34 26 c-19 15 -66 52 -106 83 l-72 56 101 71 c60 42 106 68 113 64 7 -4
53 -38 103 -77z m472 -22 c54 -42 97 -80 94 -84 -7 -13 -192 -139 -202 -139
-5 0 -56 36 -112 81 -88 70 -100 83 -88 95 34 34 184 133 196 129 7 -3 57 -39
112 -82z m-2944 -107 c-3 -12 -956 -689 -962 -683 -2 2 -7 74 -11 159 l-6 154
388 271 389 271 102 -82 c57 -44 102 -85 100 -90z m3407 92 c56 -44 102 -85
102 -90 0 -4 -45 -40 -99 -78 l-99 -69 -41 32 c-23 17 -72 56 -109 85 l-68 54
103 73 c57 40 104 74 106 74 1 1 48 -36 105 -81z m-3012 -19 c56 -45 97 -85
92 -89 -20 -18 -212 -150 -218 -150 -4 0 -54 37 -111 82 l-103 83 51 35 c28
19 76 54 107 77 31 23 62 42 69 42 7 1 58 -36 113 -80z m3487 5 c53 -42 97
-80 97 -85 0 -8 -195 -149 -207 -149 -10 0 -198 150 -198 158 1 6 197 148 208
151 2 1 47 -33 100 -75z m481 -11 c55 -43 100 -81 100 -85 1 -5 -168 -129
-205 -151 -6 -3 -58 32 -117 77 l-106 84 107 75 c59 42 110 76 114 77 5 0 53
-35 107 -77z m-3502 -21 l93 -74 -38 -27 c-20 -15 -67 -48 -103 -74 l-66 -47
-97 79 c-54 43 -98 82 -98 86 0 14 195 144 206 138 6 -4 53 -40 103 -81z
m3982 -9 c55 -43 100 -81 101 -85 0 -4 -45 -39 -100 -79 -70 -49 -104 -68
-113 -62 -168 129 -208 166 -196 179 34 33 185 133 196 129 7 -2 57 -39 112
-82z m-3541 1 c53 -42 103 -82 110 -89 11 -10 -5 -26 -88 -84 l-101 -71 -110
87 c-67 53 -106 90 -100 96 10 10 184 136 189 137 2 0 47 -34 100 -76z m480
-45 l103 -81 -98 -69 c-54 -38 -101 -68 -105 -66 -12 4 -209 159 -206 162 16
14 192 135 197 135 3 0 53 -36 109 -81z m459 -23 c116 -91 119 -70 -22 -168
l-80 -56 -98 78 c-54 43 -99 82 -100 86 -1 10 184 145 193 141 3 -1 51 -38
107 -81z m470 -29 l102 -80 -102 -72 -102 -72 -98 75 c-53 41 -102 81 -107 87
-8 10 15 31 87 83 54 38 103 67 108 64 6 -3 56 -41 112 -85z m469 -18 c57 -44
102 -84 100 -87 -2 -4 -49 -38 -105 -76 l-100 -69 -73 56 c-40 31 -88 69 -107
85 l-35 29 100 71 c54 39 103 71 107 71 5 1 56 -35 113 -80z m-3027 -34 c49
-38 90 -72 90 -75 0 -3 -260 -188 -577 -411 -470 -331 -578 -403 -584 -389
-11 28 -40 227 -36 250 2 15 145 122 493 369 411 292 493 346 507 337 9 -6 57
-42 107 -81z m3494 15 c53 -41 96 -77 97 -80 0 -3 -46 -37 -102 -76 l-102 -72
-75 59 c-42 32 -88 69 -104 81 l-27 23 102 72 c57 40 106 71 109 70 3 -1 49
-36 102 -77z m-2990 -43 c32 -25 57 -50 56 -54 -1 -4 -50 -42 -109 -84 l-108
-77 -95 77 c-53 42 -97 80 -99 86 -2 5 46 44 107 86 l110 77 40 -32 c22 -18
66 -53 98 -79z m3455 37 c53 -42 101 -80 105 -84 7 -6 -126 -107 -199 -152 -7
-5 -54 26 -118 76 l-106 84 107 76 c60 42 109 76 111 76 2 0 47 -34 100 -76z
m495 -23 c59 -47 107 -87 107 -90 -1 -11 -198 -146 -213 -146 -9 0 -63 38
-122 83 l-106 84 58 42 c32 23 81 58 108 78 28 20 52 36 55 35 3 -1 54 -40
113 -86z m-3522 -7 c60 -47 107 -89 104 -94 -10 -16 -195 -142 -204 -138 -19
7 -210 164 -208 170 2 6 185 144 195 147 2 1 53 -38 113 -85z m532 -78 c20
-16 37 -32 37 -36 0 -13 -193 -141 -206 -136 -8 3 -57 40 -109 82 l-95 76 103
73 102 72 65 -51 c36 -27 82 -64 103 -80z m395 23 c57 -45 100 -85 95 -89 -4
-4 -48 -35 -97 -70 -80 -57 -91 -62 -110 -50 -45 27 -186 144 -184 151 3 8
179 137 188 138 3 0 51 -36 108 -80z m569 -114 c-25 -22 -193 -135 -200 -135
-16 0 -218 163 -210 171 4 4 50 36 101 72 l94 66 109 -86 c60 -48 108 -87 106
-88z m359 63 c57 -45 104 -85 104 -88 0 -6 -173 -130 -192 -138 -13 -6 -220
160 -211 169 9 9 186 137 191 138 2 1 50 -36 108 -81z m569 -98 c5 -8 -183
-142 -201 -144 -13 -1 -204 142 -204 153 1 3 47 38 103 77 l102 71 98 -75 c54
-42 100 -79 102 -82z m373 55 c117 -92 120 -71 -25 -171 l-81 -56 -106 82
c-59 46 -105 85 -103 87 17 16 202 143 207 141 3 -2 52 -39 108 -83z m-3508
-9 l100 -79 -64 -46 c-35 -25 -319 -226 -630 -446 -310 -220 -565 -406 -565
-414 -1 -7 5 -11 13 -8 8 3 296 206 641 451 l627 445 109 -87 c107 -85 109
-87 89 -104 -12 -9 -303 -216 -648 -459 -345 -243 -629 -444 -631 -446 -3 -2
0 -8 5 -13 6 -6 237 151 654 446 355 251 650 458 657 461 11 4 211 -145 212
-158 1 -4 -236 -175 -526 -380 -291 -205 -581 -411 -646 -457 -76 -54 -115
-88 -109 -94 6 -6 226 144 613 418 332 234 625 442 650 460 l45 33 103 -81
c85 -66 100 -83 89 -93 -7 -7 -283 -204 -614 -437 -330 -232 -600 -427 -600
-433 1 -5 6 -10 11 -9 6 1 286 196 624 434 560 396 615 432 634 421 52 -33
196 -156 190 -162 -5 -3 -272 -192 -595 -419 -324 -227 -588 -416 -588 -420 0
-4 -39 7 -87 25 -379 143 -681 343 -905 600 -43 49 -78 94 -78 100 0 5 -14 54
-32 108 -31 95 -31 98 -12 111 313 225 1151 814 1157 813 4 -1 52 -38 107 -81z
m485 -8 c57 -46 104 -85 104 -88 0 -3 -49 -40 -110 -83 -72 -50 -115 -75 -123
-69 -53 41 -206 165 -206 167 0 6 214 155 222 155 5 0 56 -37 113 -82z m3502
0 c57 -45 106 -84 108 -88 4 -7 -192 -149 -209 -152 -11 -1 -225 165 -223 174
3 9 200 148 211 148 4 0 55 -37 113 -82z m-3037 -24 c52 -42 96 -79 98 -84 2
-4 -43 -40 -98 -79 l-102 -72 -97 78 c-53 43 -98 83 -99 88 -2 11 176 144 193
144 6 1 53 -33 105 -75z m466 -25 l104 -81 -105 -74 -105 -74 -100 81 c-55 44
-100 83 -100 87 1 6 190 142 199 142 2 0 50 -37 107 -81z m467 -34 c54 -42 95
-81 90 -85 -4 -4 -48 -35 -97 -70 -77 -53 -92 -61 -108 -51 -36 23 -198 153
-198 160 1 13 196 139 205 132 6 -5 54 -43 108 -86z m520 -69 c20 -16 37 -32
37 -36 0 -7 -185 -140 -195 -140 -9 0 -206 158 -206 166 -1 3 43 37 97 75 l97
68 66 -52 c36 -28 83 -65 104 -81z m397 29 c52 -41 95 -79 95 -84 0 -9 -180
-141 -191 -141 -9 0 -204 153 -204 159 1 6 191 140 200 140 3 1 48 -33 100
-74z m483 -28 l98 -76 -107 -75 -106 -75 -77 59 c-42 33 -89 71 -106 84 l-30
25 25 18 c115 85 187 130 195 124 6 -5 54 -42 108 -84z m468 -24 c60 -47 106
-90 102 -93 -5 -4 -50 -38 -101 -74 l-94 -67 -36 28 c-84 63 -187 146 -189
152 -2 7 187 141 199 141 5 0 58 -39 119 -87z m-3023 -22 c50 -41 89 -78 86
-82 -8 -13 -204 -149 -214 -149 -11 0 -208 152 -209 160 -1 12 223 158 234
152 6 -4 52 -40 103 -81z m453 -12 c55 -44 97 -84 94 -89 -7 -11 -191 -140
-200 -140 -3 0 -51 36 -106 81 l-100 80 103 74 c57 41 104 74 106 74 2 1 48
-35 103 -80z m465 -20 c57 -45 104 -85 104 -89 0 -4 -46 -39 -101 -78 l-101
-71 -104 82 c-56 45 -102 86 -101 90 2 7 186 145 195 147 2 0 50 -37 108 -81z
m501 -59 c40 -30 72 -57 72 -60 0 -3 -45 -36 -100 -73 l-99 -68 -105 82 c-58
45 -105 85 -105 88 1 3 44 36 98 73 l96 67 36 -27 c20 -15 68 -52 107 -82z
m428 1 c52 -40 95 -77 95 -81 0 -7 -185 -140 -195 -140 -8 0 -199 150 -202
159 -3 8 189 140 199 138 4 -1 50 -35 103 -76z m450 -12 c50 -39 96 -76 103
-83 11 -11 -5 -26 -87 -85 l-100 -71 -106 82 c-58 45 -105 84 -105 87 1 6 192
141 200 141 3 0 46 -32 95 -71z m486 -30 c57 -44 108 -84 112 -89 5 -4 -15
-25 -45 -47 -29 -21 -76 -55 -104 -76 l-51 -37 -116 92 -117 91 38 27 c135 97
168 119 173 120 3 0 52 -36 110 -81z m-2560 -46 c54 -43 98 -80 98 -83 0 -3
-50 -40 -110 -83 l-111 -78 -97 78 c-53 43 -98 82 -100 86 -2 8 197 155 213
156 4 1 52 -34 107 -76z m468 -23 c55 -44 101 -82 101 -84 0 -6 -199 -146
-207 -146 -4 0 -171 129 -206 160 -9 8 179 149 199 149 6 1 57 -35 113 -79z
m471 -23 c55 -43 100 -82 100 -85 -1 -4 -47 -39 -104 -78 l-102 -71 -107 85
-107 85 38 27 c141 101 168 119 174 117 4 -1 53 -37 108 -80z m464 -29 c52
-40 95 -75 95 -78 0 -3 -45 -36 -100 -73 l-99 -68 -100 78 c-55 43 -99 81 -98
85 5 15 183 137 195 133 6 -2 54 -37 107 -77z m454 -19 c56 -44 100 -85 97
-90 -3 -5 -48 -38 -100 -74 l-94 -66 -101 80 c-55 44 -102 83 -102 88 -1 7
180 142 192 142 3 1 51 -36 108 -80z m478 -35 c55 -43 101 -83 103 -87 4 -15
-191 -148 -203 -138 -6 4 -56 43 -111 86 -55 42 -100 82 -100 87 0 16 189 146
200 138 6 -4 55 -43 111 -86z m-2098 -63 c51 -41 92 -78 92 -81 0 -7 -19 -21
-136 -103 l-80 -56 -107 86 -108 85 112 79 c66 46 116 76 123 71 7 -4 53 -40
104 -81z m474 -25 l98 -78 -23 -17 c-97 -74 -189 -131 -199 -125 -29 17 -198
157 -198 163 1 13 205 147 215 141 6 -4 54 -42 107 -84z m453 -7 c118 -92 113
-86 85 -107 -14 -9 -61 -43 -105 -74 l-81 -56 -103 80 c-56 44 -99 84 -94 89
19 19 189 137 198 138 6 1 51 -31 100 -70z m468 -32 l106 -84 -94 -66 c-51
-37 -97 -68 -102 -69 -12 -4 -214 153 -211 163 3 8 178 137 189 138 3 1 53
-37 112 -82z m468 -28 c57 -44 108 -84 112 -89 5 -4 -37 -40 -92 -80 l-102
-72 -47 37 c-26 20 -77 60 -114 88 -37 29 -66 55 -65 59 3 10 181 137 193 138
6 0 57 -36 115 -81z m-1635 -91 c57 -46 104 -85 104 -88 -1 -7 -202 -144 -217
-148 -13 -3 -218 157 -210 164 7 8 212 153 215 154 2 0 51 -37 108 -82z m507
-51 c32 -25 59 -48 60 -51 1 -3 -45 -38 -103 -79 l-105 -74 -101 81 c-56 45
-100 84 -97 88 2 4 49 39 105 77 l101 71 41 -33 c23 -18 67 -54 99 -80z m422
22 c50 -39 96 -76 103 -84 11 -10 -4 -25 -88 -84 -55 -39 -105 -71 -111 -71
-18 0 -211 162 -202 170 16 15 197 140 202 140 3 0 47 -32 96 -71z m490 -51
c58 -45 105 -84 105 -87 0 -10 -184 -136 -196 -135 -11 1 -236 175 -232 179
46 39 196 134 206 130 7 -2 60 -42 117 -87z m-1566 -179 c1 -5 -1015 -721
-1064 -751 -19 -12 -328 68 -323 83 2 5 268 195 592 423 l590 414 102 -82 c57
-44 103 -84 103 -87z m382 69 c54 -44 98 -82 97 -83 -2 -2 -52 -37 -111 -79
l-108 -77 -98 78 c-53 43 -98 82 -100 86 -2 8 197 155 212 156 4 1 53 -36 108
-81z m-2901 42 c12 -16 19 -30 16 -30 -2 0 -14 14 -26 30 -12 17 -19 30 -16
30 2 0 14 -13 26 -30z m3370 -57 c54 -43 99 -81 100 -84 0 -14 -203 -150 -216
-145 -25 10 -205 159 -199 165 19 19 192 139 203 140 7 1 57 -34 112 -76z
m520 -57 c41 -32 76 -61 77 -65 2 -5 -187 -141 -207 -149 -8 -3 -225 169 -229
181 -1 5 44 41 101 81 l103 73 40 -31 c22 -17 74 -57 115 -90z m445 -14 c61
-48 143 -113 184 -144 l73 -57 -89 -44 c-164 -81 -127 -88 -317 60 -91 70
-165 130 -165 133 0 6 190 140 198 140 3 0 56 -40 116 -88z m-1677 -90 c76
-61 91 -77 80 -88 -7 -7 -199 -143 -426 -303 -227 -159 -412 -293 -412 -298 1
-4 7 -7 14 -7 7 1 203 135 436 299 384 271 425 297 443 285 53 -33 196 -155
190 -161 -5 -4 -141 -100 -303 -214 -162 -114 -300 -213 -306 -221 -14 -17
-282 -19 -480 -4 -125 10 -394 46 -401 54 -8 8 1052 744 1062 738 6 -3 52 -39
103 -80z m507 -36 c33 -27 60 -53 60 -57 0 -16 -209 -158 -220 -150 -5 4 -54
43 -107 85 l-98 78 112 79 111 79 41 -33 c23 -18 68 -55 101 -81z m446 3 c63
-50 115 -94 116 -97 1 -4 -45 -40 -103 -80 -72 -51 -108 -71 -117 -65 -78 60
-217 176 -217 181 1 5 188 143 206 151 1 1 53 -40 115 -90z m550 -75 c88 -70
157 -130 152 -134 -22 -21 -532 -220 -564 -220 -6 0 -56 36 -110 79 l-99 79
105 76 c58 42 107 76 110 76 3 0 62 -45 130 -100 69 -55 130 -100 135 -100 27
0 -1 29 -116 120 l-125 99 48 35 c26 19 73 53 103 75 30 22 58 40 63 41 4 0
80 -57 168 -126z m-4514 -10 c127 -26 147 -38 211 -123 149 -199 512 -503 812
-679 52 -30 98 -60 101 -65 14 -20 -15 -68 -56 -97 -58 -40 -169 -82 -340
-130 -207 -57 -954 -294 -1310 -414 -431 -145 -791 -281 -1113 -420 -111 -48
-166 -66 -197 -66 -56 0 -75 8 -75 30 0 10 102 135 228 277 510 580 918 1065
1157 1378 142 184 189 231 279 275 102 51 181 59 303 34z m3726 -85 c62 -50
113 -94 114 -98 1 -3 -46 -40 -104 -82 l-107 -76 -108 85 c-60 47 -113 90
-118 97 -7 8 22 34 98 88 59 42 108 76 110 77 2 0 54 -41 115 -91z m-130 -279
c-4 -4 -54 -40 -110 -79 -57 -40 -103 -76 -103 -80 0 -9 -172 -36 -345 -55
-146 -16 -289 -27 -283 -21 2 2 141 100 308 218 l304 214 119 -95 c65 -52 114
-98 110 -102z m374 83 l96 -78 -74 -22 c-169 -52 -249 -71 -249 -60 0 7 -21
27 -46 46 -25 19 -41 37 -37 41 15 14 206 150 210 150 2 0 47 -35 100 -77z
m-254 -173 c-7 -8 -278 -68 -283 -62 -3 3 0 6 5 8 6 2 51 33 100 68 l89 64 47
-36 c26 -21 45 -39 42 -42z"/>
</g>
</svg>
